<?xml version="1.0" encoding="UTF-8" standalone="no"?>
<!-- Created with Inkscape (http://www.inkscape.org/) -->

<svg
   width="45.021503mm"
   height="45.015419mm"
   viewBox="0 0 45.021504 45.015419"
   version="1.1"
   id="svg1"
   inkscape:version="1.4.2 (f4327f4, 2025-05-13)"
   sodipodi:docname="logo_without_text.svg"
   xmlns:inkscape="http://www.inkscape.org/namespaces/inkscape"
   xmlns:sodipodi="http://sodipodi.sourceforge.net/DTD/sodipodi-0.dtd"
   xmlns="http://www.w3.org/2000/svg"
   xmlns:svg="http://www.w3.org/2000/svg">
  <sodipodi:namedview
     id="namedview1"
     pagecolor="#ffffff"
     bordercolor="#000000"
     borderopacity="0.25"
     inkscape:showpageshadow="2"
     inkscape:pageopacity="0.0"
     inkscape:pagecheckerboard="0"
     inkscape:deskcolor="#d1d1d1"
     inkscape:document-units="mm"
     inkscape:zoom="1.947738"
     inkscape:cx="239.2519"
     inkscape:cy="58.786142"
     inkscape:window-width="1920"
     inkscape:window-height="991"
     inkscape:window-x="-9"
     inkscape:window-y="-9"
     inkscape:window-maximized="1"
     inkscape:current-layer="layer1" />
  <defs
     id="defs1">
    <inkscape:path-effect
       effect="fillet_chamfer"
       id="path-effect5-24-4-6-4"
       is_visible="true"
       lpeversion="1"
       nodesatellites_param="F,0,0,1,0,5.1584054,0,1 @ F,0,0,1,0,5.1584054,0,1 @ F,0,0,1,0,2.5538085,0,1 @ F,0,1,1,0,2.6703686,0,1"
       radius="0"
       unit="px"
       method="auto"
       mode="F"
       chamfer_steps="1"
       flexible="false"
       use_knot_distance="true"
       apply_no_radius="true"
       apply_with_radius="true"
       only_selected="true"
       hide_knots="false" />
  </defs>
  <g
     inkscape:label="Слой 1"
     inkscape:groupmode="layer"
     id="layer1"
     transform="translate(-19.036255,-130.35079)">
    <path
       d="m 38.281013,159.03888 -1.727134,1.59728 c 0.623919,0.14196 1.333184,0.65925 1.780719,0.97926 0.618239,-0.84525 0.429921,-0.85848 1.04816,-1.70373 -0.404531,-0.23963 -0.792058,-0.52381 -1.101745,-0.87281 z m -10.709345,9.41552 c -0.628959,0.6606 -1.324073,1.26401 -1.90303,1.96796 -0.560968,0.82442 -0.277105,2.01596 0.536111,2.56416 0.624271,0.51921 1.229299,1.23069 2.122127,1.18027 0.796626,0.0221 1.443871,-0.52282 1.847046,-1.16225 0.421047,-0.56328 0.842095,-1.12657 1.263143,-1.68985 -1.330829,-0.89426 -2.62204,-1.84786 -3.865397,-2.86029 z"
       style="fill:#ffffff;stroke:#868686;stroke-width:0.79375;stroke-linecap:round;stroke-linejoin:round;stroke-dasharray:none;stroke-opacity:1"
       id="path7"
       sodipodi:nodetypes="cccccccccccc" />
    <path
       d="m 38.213122,135.40833 -0.138079,-0.005 c -0.913689,-0.0559 -2.564814,0.48224 -0.708107,0.74706 4.07927,1.42103 8.149999,3.40133 11.07891,6.66006 0.578087,-0.78565 1.156174,-1.57131 1.734261,-2.35696 -3.484331,-2.41088 -7.281955,-4.5874 -11.563775,-5.03455 z m -12.658902,5.75368 c -2.066985,0.0194 -3.838852,1.44974 -4.755265,3.30419 -2.697397,5.45846 -1.076933,11.9616 2.111499,16.80466 4.478203,6.65391 11.574514,11.7369 19.529557,13.16095 1.548974,0.10939 4.15268,0.007 1.64021,-0.93999 -4.536321,-1.99289 -9.067669,-4.505 -12.037508,-8.59999 -2.701366,-3.6521 -5.853144,-7.65708 -5.718514,-12.44937 -0.02753,-1.92026 1.613932,-3.9763 3.694348,-3.45354 2.057382,-0.0402 4.152134,2.65461 5.109766,3.03702 0.184909,-1.6175 1.477077,-3.02063 3.093868,-3.28507 -3.282664,-2.63402 -6.099575,-6.27204 -10.386446,-7.29619 -0.609724,-0.15445 -1.235677,-0.24741 -1.864486,-0.26769 -0.140257,-0.0115 -0.27923,-0.0163 -0.417029,-0.015 z m 30.03641,4.06383 c -0.824584,0.83096 -1.649167,1.66191 -2.473751,2.49287 2.369584,3.04052 4.51341,6.82266 3.959965,10.81485 -0.25332,1.8442 -2.420665,2.8132 -3.994072,2.59726 -1.658083,-0.22756 -3.241115,-1.70701 -3.936193,-2.12597 -0.268212,2.20751 -1.825729,2.63463 -2.901115,3.22099 3.205406,2.97384 6.62131,6.52135 11.286132,6.79132 3.28335,0.19002 5.651619,-2.87359 6.02754,-5.85649 0.671184,-5.32578 -2.104022,-10.36443 -5.119585,-14.53659 -0.883612,-1.18589 -1.836413,-2.32041 -2.848921,-3.39824 z"
       style="display:inline;fill:#8d46f6;stroke:none;stroke-width:0.79375;stroke-dasharray:none;stroke-opacity:1"
       id="path8"
       sodipodi:nodetypes="ccccccccccccccccccccccccsccsscc" />
    <path
       d="m 31.541049,136.48574 c -1.216404,-0.0607 -4.118257,0.36989 -4.091172,0.94953 4.170496,0.39765 8.518369,0.80822 12.158258,3.08298 2.329706,1.39319 4.559654,3.16394 5.81217,5.63098 0.624768,-0.86575 1.249536,-1.73151 1.874304,-2.59726 -4.168367,-4.10105 -9.784295,-7.13906 -15.75356,-7.06623 z"
       style="display:inline;fill:#7ad7ff;stroke:none;stroke-width:0.79375;stroke-dasharray:none;stroke-opacity:1;fill-opacity:1"
       id="path5" />
    <path
       d="m 40.021554,149.89067 c -1.258967,-0.0505 -2.604984,0.56069 -3.137634,1.75366 -0.70116,1.51547 -0.222992,3.28432 0.624928,4.63475 1.169918,1.835 2.949355,3.28561 4.982063,4.06259 1.418283,0.53656 3.169508,0.62884 4.417424,-0.35817 1.073243,-0.81876 1.347661,-2.3134 1.02126,-3.56694 -0.239192,-1.01707 -0.742451,-1.95628 -1.364771,-2.78916 -0.605648,0.6103 -1.619526,1.4127 -2.225174,2.023 -1.417539,1.21734 -3.528232,-0.21681 -2.860944,-2.05638 0.319211,-0.69416 0.839862,-1.26529 1.264978,-1.89476 l 0.614617,-0.85152 c -1.023074,-0.55481 -2.164596,-0.9397 -3.336747,-0.95707 z"
       style="display:inline;fill:#ffffff;stroke:#868686;stroke-width:0.79375;stroke-dasharray:none;stroke-opacity:1"
       id="path4"
       sodipodi:nodetypes="cccccccccccc" />
    <path
       d="m 59.932483,130.74766 c -1.305268,0.0456 -1.757626,1.33646 -2.465117,2.19631 l -14.584488,20.39094 c -0.932011,1.50944 0.367546,2.18867 1.32444,1.05705 6.104147,-6.24845 12.649778,-12.85347 18.753925,-19.10192 0.949505,-0.91541 0.382317,-2.31024 -0.583191,-2.93053 -0.775723,-0.58793 -1.414192,-1.51072 -2.445569,-1.61185 z"
       style="display:inline;fill:#ffffff;stroke:#868686;stroke-width:0.79375;stroke-linecap:round;stroke-linejoin:round;stroke-dasharray:none;stroke-opacity:1"
       id="path3"
       sodipodi:nodetypes="ccccccc" />
    <path
       d="m 35.068704,161.97447 c -2.898518,0.33044 -0.934631,3.63792 0.477068,4.62407 5.815621,5.23657 13.556969,8.31987 21.396187,8.36189 1.334245,0.0281 3.726311,-0.003 4.467051,-0.20386 -5.9736,-0.73962 -11.913497,-2.52482 -16.90396,-5.97348 -2.504572,-1.54416 -4.57532,-3.64001 -6.782533,-5.55521 -0.775847,-0.59221 -1.63814,-1.22191 -2.653813,-1.25341 z"
       style="fill:#7ad7ff;stroke:none;stroke-width:0.79375;stroke-dasharray:none;stroke-opacity:1;fill-opacity:1"
       id="path2" />
  </g>
</svg>
