<?xml version="1.0" encoding="UTF-8" standalone="no"?>
<!-- Created with Inkscape (http://www.inkscape.org/) -->

<svg
   width="77.818413mm"
   height="17.97761mm"
   viewBox="0 0 77.818413 17.97761"
   version="1.1"
   id="svg1"
   inkscape:version="1.4.2 (f4327f4, 2025-05-13)"
   sodipodi:docname="only_text (no under-jet).svg"
   xmlns:inkscape="http://www.inkscape.org/namespaces/inkscape"
   xmlns:sodipodi="http://sodipodi.sourceforge.net/DTD/sodipodi-0.dtd"
   xmlns="http://www.w3.org/2000/svg"
   xmlns:svg="http://www.w3.org/2000/svg">
  <sodipodi:namedview
     id="namedview1"
     pagecolor="#ffffff"
     bordercolor="#000000"
     borderopacity="0.25"
     inkscape:showpageshadow="2"
     inkscape:pageopacity="0.0"
     inkscape:pagecheckerboard="0"
     inkscape:deskcolor="#d1d1d1"
     inkscape:document-units="mm"
     inkscape:zoom="0.68862935"
     inkscape:cx="106.73376"
     inkscape:cy="246.14112"
     inkscape:window-width="1920"
     inkscape:window-height="991"
     inkscape:window-x="-9"
     inkscape:window-y="-9"
     inkscape:window-maximized="1"
     inkscape:current-layer="layer1" />
  <defs
     id="defs1">
    <inkscape:path-effect
       effect="fillet_chamfer"
       id="path-effect21"
       is_visible="true"
       lpeversion="1"
       nodesatellites_param="F,0,0,1,0,0,0,1 @ F,0,0,1,0,0,0,1 @ F,0,0,1,0,0,0,1 @ F,0,0,1,0,0,0,1 @ F,0,0,1,0,0,0,1 @ F,0,0,1,0,0,0,1 @ F,0,0,1,0,0,0,1 @ F,0,0,1,0,0,0,1 @ F,0,0,1,0,0,0,1 @ F,0,0,1,0,0,0,1 @ F,0,0,1,0,0,0,1 @ F,0,0,1,0,0,0,1 @ F,0,0,1,0,0,0,1 @ F,0,0,1,0,0,0,1 @ F,0,0,1,0,0,0,1 @ F,0,0,1,0,0,0,1 @ F,0,0,1,0,0,0,1 @ F,0,0,1,0,0,0,1 @ F,0,0,1,0,0,0,1 @ F,0,0,1,0,0,0,1 @ F,0,0,1,0,0,0,1"
       radius="0"
       unit="px"
       method="auto"
       mode="F"
       chamfer_steps="1"
       flexible="false"
       use_knot_distance="true"
       apply_no_radius="true"
       apply_with_radius="true"
       only_selected="false"
       hide_knots="false" />
    <inkscape:path-effect
       effect="fillet_chamfer"
       id="path-effect19"
       is_visible="true"
       lpeversion="1"
       nodesatellites_param="F,0,0,1,0,0,0,1 @ F,0,0,1,0,0,0,1 @ F,0,0,1,0,0,0,1 @ F,0,0,1,0,0,0,1 @ F,0,0,1,0,0,0,1 @ F,0,0,1,0,0,0,1 @ F,0,0,1,0,0,0,1 @ F,0,0,1,0,0,0,1 @ F,0,0,1,0,0,0,1 @ F,0,0,1,0,0,0,1 @ F,0,0,1,0,0,0,1 @ F,0,0,1,0,0,0,1 @ F,0,0,1,0,0,0,1 @ F,0,0,1,0,0,0,1 @ F,0,0,1,0,0,0,1 @ F,0,0,1,0,0,0,1 @ F,0,0,1,0,0,0,1 @ F,0,0,1,0,0,0,1 @ F,0,0,1,0,0,0,1 @ F,0,0,1,0,0,0,1 @ F,0,0,1,0,0,0,1 @ F,0,0,1,0,0,0,1 @ F,0,0,1,0,0,0,1 @ F,0,0,1,0,0,0,1 @ F,0,0,1,0,0,0,1 @ F,0,0,1,0,0,0,1 @ F,0,0,1,0,0,0,1 @ F,0,0,1,0,0,0,1"
       radius="0"
       unit="px"
       method="auto"
       mode="F"
       chamfer_steps="1"
       flexible="false"
       use_knot_distance="true"
       apply_no_radius="true"
       apply_with_radius="true"
       only_selected="false"
       hide_knots="false" />
    <inkscape:path-effect
       effect="fillet_chamfer"
       id="path-effect17"
       is_visible="true"
       lpeversion="1"
       nodesatellites_param="F,0,0,1,0,0,0,1 @ F,0,0,1,0,0,0,1 @ F,0,0,1,0,0,0,1 @ F,0,0,1,0,0,0,1 @ F,0,0,1,0,0,0,1 @ F,0,0,1,0,0,0,1 @ F,0,0,1,0,0,0,1 @ F,0,0,1,0,0,0,1 @ F,0,0,1,0,0,0,1 @ F,0,0,1,0,0,0,1 @ F,0,0,1,0,0,0,1 @ F,0,0,1,0,0,0,1 @ F,0,0,1,0,0,0,1 @ F,0,0,1,0,0,0,1 @ F,0,0,1,0,0,0,1 @ F,0,0,1,0,0,0,1 @ F,0,0,1,0,0,0,1 @ F,0,0,1,0,0,0,1 @ F,0,0,1,0,0,0,1 @ F,0,0,1,0,0,0,1 @ F,0,0,1,0,0,0,1 @ F,0,0,1,0,0,0,1 @ F,0,0,1,0,0,0,1 @ F,0,0,1,0,0,0,1 @ F,0,0,1,0,0,0,1 @ F,0,0,1,0,0,0,1 @ F,0,0,1,0,0,0,1 @ F,0,0,1,0,0,0,1 @ F,0,0,1,0,0,0,1 @ F,0,0,1,0,0,0,1 @ F,0,0,1,0,0,0,1 @ F,0,0,1,0,0,0,1 @ F,0,0,1,0,0,0,1 @ F,0,0,1,0,0,0,1 @ F,0,0,1,0,0,0,1 @ F,0,0,1,0,0,0,1 @ F,0,0,1,0,0,0,1 @ F,0,0,1,0,0,0,1 @ F,0,0,1,0,0,0,1"
       radius="0"
       unit="px"
       method="auto"
       mode="F"
       chamfer_steps="1"
       flexible="false"
       use_knot_distance="true"
       apply_no_radius="true"
       apply_with_radius="true"
       only_selected="false"
       hide_knots="false" />
    <inkscape:path-effect
       effect="fillet_chamfer"
       id="path-effect3-0"
       is_visible="true"
       lpeversion="1"
       nodesatellites_param="F,0,0,1,0,0,0,1 @ F,0,0,1,0,0,0,1 @ F,0,0,1,0,0,0,1 @ F,0,0,1,0,0,0,1 @ F,0,0,1,0,0,0,1 @ F,0,0,1,0,0,0,1 @ F,0,0,1,0,0,0,1 @ F,0,0,1,0,0,0,1 @ F,0,0,1,0,0,0,1 @ F,0,0,1,0,0,0,1 @ F,0,0,1,0,0,0,1 @ F,0,0,1,0,0,0,1 @ F,0,0,1,0,0,0,1 @ F,0,0,1,0,0,0,1 @ F,0,0,1,0,0,0,1 @ F,0,0,1,0,0,0,1 @ F,0,0,1,0,0,0,1 @ F,0,0,1,0,0,0,1 @ F,0,0,1,0,0,0,1 @ F,0,0,1,0,0,0,1 @ F,0,0,1,0,0,0,1 @ F,0,0,1,0,0,0,1 @ F,0,0,1,0,0,0,1 @ F,0,0,1,0,0,0,1 @ F,0,0,1,0,0,0,1 @ F,0,0,1,0,0,0,1 @ F,0,0,1,0,0,0,1 @ F,0,0,1,0,0,0,1 @ F,0,0,1,0,0,0,1 @ F,0,0,1,0,0,0,1 @ F,0,0,1,0,0,0,1 | F,0,0,1,0,0,0,1 @ F,0,0,1,0,0,0,1 @ F,0,0,1,0,0,0,1 @ F,0,0,1,0,0,0,1 @ F,0,0,1,0,0,0,1"
       radius="0"
       unit="px"
       method="auto"
       mode="F"
       chamfer_steps="1"
       flexible="false"
       use_knot_distance="true"
       apply_no_radius="true"
       apply_with_radius="true"
       only_selected="false"
       hide_knots="false" />
  </defs>
  <g
     inkscape:label="Слой 1"
     inkscape:groupmode="layer"
     id="layer1"
     transform="translate(-76.806404,-83.185758)">
    <path
       d="m 76.680627,112.44795 h 2.190749 c 0.02329,0 0.03924,0.008 0.04787,0.0254 0.0086,0.0169 0.0073,0.037 -0.0041,0.0603 l -0.250408,0.51118 c -0.0114,0.0233 -0.02971,0.0434 -0.05494,0.0603 -0.02523,0.0169 -0.04948,0.0254 -0.07276,0.0254 h -0.682643 l -0.712332,1.45415 c -0.0114,0.0233 -0.02972,0.0434 -0.05495,0.0603 -0.02523,0.0169 -0.04948,0.0254 -0.07276,0.0254 h -0.65405 c -0.02329,0 -0.03925,-0.008 -0.04788,-0.0254 -0.0086,-0.0169 -0.0073,-0.037 0.0041,-0.0603 l 0.712332,-1.45415 H 76.34623 c -0.02329,0 -0.03925,-0.008 -0.04788,-0.0254 -0.0086,-0.0169 -0.0073,-0.037 0.0041,-0.0603 l 0.250408,-0.51118 c 0.0114,-0.0233 0.02971,-0.0434 0.05494,-0.0603 0.02524,-0.0169 0.0495,-0.0254 0.07278,-0.0254 z"
       style="font-size:3.175px;font-family:'Rubik Mono One';-inkscape-font-specification:'Rubik Mono One, Normal';fill:#8d46f6;fill-opacity:1;stroke-width:0.264583"
       transform="matrix(6.8717808,0,0.56394425,6.8717808,-451.17283,-689.5317)"
       id="path19"
       inkscape:label="letter_4"
       inkscape:original-d="m 76.680627,112.44795 h 2.190749 q 0.03493,0 0.04787,0.0254 0.01296,0.0254 -0.0041,0.0603 l -0.250408,0.51118 q -0.0171,0.0349 -0.05494,0.0603 -0.03784,0.0254 -0.07276,0.0254 h -0.682643 l -0.712332,1.45415 q -0.0171,0.0349 -0.05495,0.0603 -0.03784,0.0254 -0.07276,0.0254 h -0.65405 q -0.03493,0 -0.04788,-0.0254 -0.01295,-0.0254 0.0041,-0.0603 l 0.712332,-1.45415 H 76.34623 q -0.03493,0 -0.04788,-0.0254 -0.01295,-0.0254 0.0041,-0.0603 l 0.250408,-0.51118 q 0.0171,-0.0349 0.05494,-0.0603 0.03786,-0.0254 0.07278,-0.0254 z"
       inkscape:path-effect="#path-effect21" />
    <path
       d="m 74.053697,114.05132 h 1.266825 c 0.02329,0 0.03925,0.008 0.04789,0.0254 0.0086,0.0169 0.0073,0.037 -0.0041,0.0603 l -0.219296,0.44767 c -0.0114,0.0233 -0.02972,0.0434 -0.05495,0.0603 -0.02523,0.0169 -0.04948,0.0254 -0.07277,0.0254 h -2.0066 c -0.02329,0 -0.03925,-0.008 -0.04789,-0.0254 -0.0086,-0.0169 -0.0073,-0.037 0.0041,-0.0603 l 1.004731,-2.05105 c 0.0114,-0.0233 0.02971,-0.0434 0.05494,-0.0603 0.02523,-0.0169 0.04949,-0.0254 0.07278,-0.0254 h 1.97485 c 0.02328,0 0.03924,0.008 0.04787,0.0254 0.0086,0.0169 0.0073,0.037 -0.0041,0.0603 l -0.219301,0.44768 c -0.0114,0.0233 -0.02972,0.0434 -0.05495,0.0603 -0.02523,0.0169 -0.04948,0.0254 -0.07276,0.0254 h -1.235075 l -0.09799,0.20003 h 1.06045 c 0.02329,0 0.03925,0.008 0.0479,0.0254 0.0086,0.0169 0.0073,0.037 -0.0041,0.0603 l -0.202191,0.41275 c -0.0114,0.0233 -0.02971,0.0434 -0.05494,0.0603 -0.02523,0.0169 -0.04948,0.0254 -0.07276,0.0254 h -1.06045 z"
       style="font-size:3.175px;font-family:'Rubik Mono One';-inkscape-font-specification:'Rubik Mono One, Normal';fill:#8d46f6;fill-opacity:1;stroke-width:0.264583"
       transform="matrix(6.8717808,0,0.56394425,6.8717808,-449.86737,-689.5317)"
       id="path17"
       inkscape:label="letter_3"
       inkscape:original-d="m 74.053697,114.05132 h 1.266825 q 0.03493,0 0.04789,0.0254 0.01296,0.0254 -0.0041,0.0603 l -0.219296,0.44767 q -0.0171,0.0349 -0.05495,0.0603 -0.03784,0.0254 -0.07277,0.0254 h -2.0066 q -0.03493,0 -0.04789,-0.0254 -0.01297,-0.0254 0.0041,-0.0603 l 1.004731,-2.05105 q 0.0171,-0.0349 0.05494,-0.0603 0.03784,-0.0254 0.07278,-0.0254 h 1.97485 q 0.03492,0 0.04787,0.0254 0.01296,0.0254 -0.0041,0.0603 l -0.219301,0.44768 q -0.0171,0.0349 -0.05495,0.0603 -0.03784,0.0254 -0.07276,0.0254 h -1.235075 l -0.09799,0.20003 h 1.06045 q 0.03493,0 0.0479,0.0254 0.01294,0.0254 -0.0041,0.0603 l -0.202191,0.41275 q -0.0171,0.0349 -0.05494,0.0603 -0.03784,0.0254 -0.07276,0.0254 h -1.06045 z"
       inkscape:path-effect="#path-effect19" />
    <path
       d="m 71.559656,114.67045 h -0.5461 c -0.02329,0 -0.03924,-0.008 -0.04787,-0.0254 -0.0086,-0.0169 -0.0073,-0.037 0.0041,-0.0603 l 0.34839,-0.7112 -0.654554,0.73343 c -0.04191,0.0423 -0.09038,0.0635 -0.145409,0.0635 h -0.5588 c -0.04021,0 -0.04995,-0.0212 -0.02921,-0.0635 10e-4,-0.002 0.01198,-0.0158 0.03293,-0.0413 l 0.967213,-1.0541 0.07283,-0.95885 c 0.004,-0.0254 0.007,-0.0402 0.009,-0.0444 0.01969,-0.0402 0.04859,-0.0603 0.08669,-0.0603 h 0.56515 c 0.04233,0 0.06055,0.0233 0.05465,0.0699 l -0.06775,0.67627 0.323506,-0.6604 c 0.0114,-0.0233 0.02971,-0.0434 0.05494,-0.0603 0.02522,-0.0169 0.04947,-0.0254 0.07276,-0.0254 h 0.5461 c 0.02329,0 0.03925,0.008 0.04788,0.0254 0.0086,0.0169 0.0073,0.037 -0.0041,0.0603 l -0.323506,0.6604 0.594804,-0.67627 c 0.03976,-0.0466 0.08081,-0.0699 0.123142,-0.0699 h 0.56515 c 0.0381,0 0.04731,0.0201 0.02762,0.0603 -0.0019,0.004 -0.01342,0.0188 -0.03446,0.0444 l -0.866579,0.95885 -0.06551,1.0541 c -0.004,0.0254 -0.0065,0.0392 -0.0075,0.0413 -0.02073,0.0423 -0.05121,0.0635 -0.09144,0.0635 h -0.5588 c -0.05503,0 -0.08276,-0.0212 -0.08319,-0.0635 l 0.064,-0.73343 -0.34839,0.7112 c -0.0114,0.0233 -0.02972,0.0434 -0.05495,0.0603 -0.02523,0.0169 -0.04949,0.0254 -0.07278,0.0254 z"
       style="font-size:3.175px;font-family:'Rubik Mono One';-inkscape-font-specification:'Rubik Mono One, Normal';fill:#8d46f6;fill-opacity:1;stroke-width:0.264583"
       transform="matrix(6.8717808,0,0.56394425,6.8717808,-449.86737,-689.5317)"
       id="path15"
       inkscape:label="letter_2"
       inkscape:original-d="m 71.559656,114.67045 h -0.5461 q -0.03493,0 -0.04787,-0.0254 -0.01294,-0.0254 0.0041,-0.0603 l 0.34839,-0.7112 -0.654554,0.73343 q -0.06287,0.0635 -0.145409,0.0635 h -0.5588 q -0.06032,0 -0.02921,-0.0635 0.0015,-0.003 0.03293,-0.0413 l 0.967213,-1.0541 0.07283,-0.95885 q 0.006,-0.0381 0.009,-0.0444 0.02954,-0.0603 0.08669,-0.0603 h 0.56515 q 0.0635,0 0.05465,0.0699 l -0.06775,0.67627 0.323506,-0.6604 q 0.0171,-0.0349 0.05494,-0.0603 0.03783,-0.0254 0.07276,-0.0254 h 0.5461 q 0.03493,0 0.04788,0.0254 0.01296,0.0254 -0.0041,0.0603 l -0.323506,0.6604 0.594804,-0.67627 q 0.05964,-0.0699 0.123142,-0.0699 h 0.56515 q 0.05715,0 0.02762,0.0603 -0.0029,0.006 -0.03446,0.0444 l -0.866579,0.95885 -0.06551,1.0541 q -0.006,0.0381 -0.0075,0.0413 -0.0311,0.0635 -0.09144,0.0635 h -0.5588 q -0.08255,0 -0.08319,-0.0635 l 0.064,-0.73343 -0.34839,0.7112 q -0.0171,0.0349 -0.05495,0.0603 -0.03784,0.0254 -0.07278,0.0254 z"
       inkscape:path-effect="#path-effect17" />
    <path
       d="m 68.895523,112.44795 h 1.6764 c 0.02329,0 0.03924,0.008 0.04787,0.0254 0.0086,0.0169 0.0073,0.037 -0.0041,0.0603 l -0.712333,1.45415 h 0.161925 c 0.02329,0 0.03925,0.008 0.04789,0.0254 0.0086,0.0169 0.0073,0.037 -0.0041,0.0603 l -0.443261,0.90487 c -0.0114,0.0233 -0.02971,0.0434 -0.05494,0.0603 -0.02523,0.0169 -0.04948,0.0254 -0.07277,0.0254 h -0.51435 c -0.02329,0 -0.03925,-0.008 -0.04789,-0.0254 -0.0086,-0.0169 -0.0073,-0.037 0.0041,-0.0603 l 0.150863,-0.30797 h -1.082665 l -0.150863,0.30797 c -0.0114,0.0233 -0.02971,0.0434 -0.05494,0.0603 -0.02523,0.0169 -0.04948,0.0254 -0.07277,0.0254 h -0.51117 c -0.02329,0 -0.03925,-0.008 -0.04789,-0.0254 -0.0097,-0.0148 -0.0083,-0.0349 0.0041,-0.0603 l 0.443261,-0.90487 c 0.0114,-0.0233 0.02972,-0.0434 0.05496,-0.0603 0.02523,-0.0169 0.04948,-0.0254 0.07277,-0.0254 h 0.0508 c 0.0508,0 0.110375,-0.0222 0.178725,-0.0667 0.07047,-0.0445 0.123844,-0.10373 0.160126,-0.1778 l 0.592577,-1.20968 c 0.0114,-0.0233 0.02971,-0.0434 0.05494,-0.0603 0.02523,-0.0169 0.04948,-0.0254 0.07277,-0.0254 z m 0.681289,0.65087 h -0.32385 l -0.317284,0.6477 c -0.0591,0.12065 -0.108028,0.20109 -0.146783,0.2413 h 0.352425 z"
       style="font-size:3.175px;font-family:'Rubik Mono One';-inkscape-font-specification:'Rubik Mono One, Normal';fill:#8d46f6;fill-opacity:1;stroke-width:0.264583"
       transform="matrix(6.8717808,0,0.56394425,6.8717808,-449.86737,-689.5317)"
       id="text1-1"
       inkscape:label="letter_1"
       inkscape:original-d="m 68.895523,112.44795 h 1.6764 q 0.03493,0 0.04787,0.0254 0.01296,0.0254 -0.0041,0.0603 l -0.712333,1.45415 h 0.161925 q 0.03493,0 0.04789,0.0254 0.01296,0.0254 -0.0041,0.0603 l -0.443261,0.90487 q -0.0171,0.0349 -0.05494,0.0603 -0.03784,0.0254 -0.07277,0.0254 h -0.51435 q -0.03493,0 -0.04789,-0.0254 -0.01295,-0.0254 0.0041,-0.0603 l 0.150863,-0.30797 h -1.082665 l -0.150863,0.30797 q -0.0171,0.0349 -0.05494,0.0603 -0.03784,0.0254 -0.07277,0.0254 h -0.51117 q -0.03493,0 -0.04789,-0.0254 -0.01452,-0.0222 0.0041,-0.0603 l 0.443261,-0.90487 q 0.0171,-0.0349 0.05496,-0.0603 0.03784,-0.0254 0.07277,-0.0254 h 0.0508 q 0.0762,0 0.178725,-0.0667 0.105703,-0.0667 0.160126,-0.1778 l 0.592577,-1.20968 q 0.0171,-0.0349 0.05494,-0.0603 0.03784,-0.0254 0.07277,-0.0254 z m 0.681289,0.65087 h -0.32385 l -0.317284,0.6477 q -0.08865,0.18098 -0.146783,0.2413 h 0.352425 z"
       inkscape:path-effect="#path-effect3-0" />
    <path
       style="fill:none;fill-opacity:0.607595;stroke:none;stroke-width:1.393"
       d="m 83.675005,89.042382 6.07889,-0.15282"
       id="path7" />
  </g>
</svg>
